Coordinates
version=1
nRows=19
nColumns=36
inDegrees=yes

Units are S.I. units (second, meters, Newtons, ...)
If the header above contains a line with 'inDegrees', this indicates whether rotational values are in degrees (yes) or radians (no).

endheader
time	pelvis_tilt	pelvis_list	pelvis_rotation	pelvis_tx	pelvis_ty	pelvis_tz	hip_flexion_r	hip_adduction_r	hip_rotation_r	knee_angle_r	knee_angle_r_beta	ankle_angle_r	subtalar_angle_r	mtp_angle_r	hip_flexion_l	hip_adduction_l	hip_rotation_l	knee_angle_l	knee_angle_l_beta	ankle_angle_l	subtalar_angle_l	mtp_angle_l	lumbar_extension	lumbar_bending	lumbar_rotation	arm_flex_r	arm_add_r	arm_rot_r	elbow_flex_r	pro_sup_r	arm_flex_l	arm_add_l	arm_rot_l	elbow_flex_l	pro_sup_l
      6.60000000	     -2.43909413	     -0.60397567	     -5.96115312	      0.86891868	      0.94261726	     -0.46179197	      2.34272957	     -5.32104771	    -11.95602893	      3.81271395	      0.06654441	     -0.15786349	    -10.31262923	     -7.49999987	      4.30233373	    -11.39925679	    -12.92809212	      6.28809640	      0.10974799	      1.03440795	     -5.93842997	     -7.49999987	     -1.92556425	      1.05327216	     -3.11501196	     43.43344569	     -5.39581532	     66.22907235	    130.48844702	     98.15013324	     47.63972332	     -3.72829194	     46.23678889	    118.24360890	     95.75697868
      6.61666670	     -2.30174120	     -0.61443693	     -6.07809604	      0.86915551	      0.94261490	     -0.46172048	      1.97112812	     -5.28797738	    -11.78972648	      3.65405797	      0.06377534	      0.04968095	    -10.32786821	     -7.49999987	      3.79413150	    -11.34564368	    -12.96203474	      6.07036639	      0.10594788	      1.19604341	     -5.92739067	     -7.49999987	     -1.49355414	      1.05294874	     -2.61664483	     42.68993769	     -5.56100327	     65.45108921	    130.77219526	     96.30271472	     46.26976915	     -3.35913556	     43.79061673	    116.70403015	     93.87819727
      6.63333330	     -2.19750915	     -0.55346245	     -6.12835638	      0.87538134	      0.94340711	     -0.46525195	      1.57575672	     -5.37621848	    -11.63374433	      3.46348047	      0.06044914	      0.20104042	    -10.45718191	     -7.49999987	      3.29484879	    -11.16373037	    -12.95383353	      5.80432647	      0.10130461	      1.42237558	     -5.80755036	     -7.49999987	     -1.13125237	      1.06643161	     -2.42381945	     41.90781001	     -5.94049168	     65.71585945	    131.27179167	     96.54941071	     44.91715932	     -3.27059533	     42.72912843	    115.82889208	     94.05746979
      6.65000000	     -1.97106428	     -0.59025288	     -6.20593489	      0.88007379	      0.94387360	     -0.46088008	      1.12379024	     -5.31686673	    -11.51953833	      3.43032895	      0.05987053	      0.54000583	    -10.61602769	     -7.49999987	      2.79512851	    -11.14428973	    -12.88812262	      5.80417982	      0.10130205	      1.70495088	     -5.91584678	     -7.49999987	     -0.76987078	      1.13808717	     -2.48613233	     40.85844733	     -5.66794702	     66.29782896	    131.84035690	     96.61470505	     43.83926714	     -3.43179926	     42.97843415	    115.65434472	     94.10274633
      6.66666670	     -2.15297023	     -0.54786123	     -6.33605185	      0.87970688	      0.94415765	     -0.46097260	      1.12606488	     -5.30328651	    -11.23823202	      3.34197259	      0.05832843	      0.63387424	    -10.83659672	     -7.49999987	      2.71350081	    -11.10368617	    -12.99367670	      5.67979527	      0.09913113	      1.97285914	     -5.73906625	     -7.49999987	     -0.13854400	      1.11380493	     -2.39631520	     39.73590006	     -5.69887523	     67.84658046	    133.83349216	     99.04720143	     43.18801693	     -2.73348710	     44.39515296	    116.58879684	     95.80086543
      6.68333330	     -2.11316358	     -0.51047102	     -6.35736309	      0.88670888	      0.94447284	     -0.46423249	      0.84538994	     -5.35872636	    -11.19257074	      3.24797750	      0.05668790	      0.81940787	    -10.87981217	     -7.49999987	      2.41326021	    -10.98922672	    -12.96784999	      5.57274967	      0.09726283	      2.10395800	     -5.74849917	     -7.49999987	      0.25023378	      1.23021156	     -2.61891914	     38.85521334	     -5.83412523	     69.66955383	    134.98891122	     99.13752954	     42.64789222	     -2.06006328	     46.15401633	    117.51794854	     95.97066539
      6.70000000	     -2.07756201	     -0.46909984	     -6.40261915	      0.88637150	      0.94463545	     -0.46446425	      0.63415769	     -5.40889886	    -11.08754621	      3.18065202	      0.05551285	      1.04145017	    -11.00243453	     -7.49999987	      2.20858191	    -10.90084081	    -12.94876903	      5.57319103	      0.09727053	      2.32624774	     -5.74929744	     -7.49999987	      0.57025265	      1.29844642	     -2.36908421	     37.86517905	     -6.56625024	     72.09119331	    136.50258715	     98.63346721	     41.77354868	     -2.08813591	     47.53296275	    117.32821265	     95.38356960
      6.71666670	     -2.06568521	     -0.43909362	     -6.35643289	      0.88634859	      0.94179108	     -0.46488466	      0.46129424	     -5.45728214	    -11.02814815	      3.13688208	      0.05474892	      1.24544449	    -11.15926814	     -7.49999987	      2.11705905	    -10.82421957	    -12.88737235	      5.60074934	      0.09775152	      2.50198730	     -5.89011825	     -7.49999987	      0.83469474	      1.37275349	     -2.35630896	     37.58378628	     -6.65576134	     73.96440276	    137.64456398	     95.40265908	     41.56506115	     -1.97993850	     48.88676433	    117.76117520	     92.03061654
      6.73333330	     -2.18458974	     -0.42077676	     -6.36522872	      0.89029164	      0.94231284	     -0.46073656	      0.43708102	     -5.42822751	    -10.88974253	      3.11683077	      0.05439896	      1.44987883	    -11.38180577	     -7.49999987	      2.06692403	    -10.81247476	    -13.07221452	      5.61213528	      0.09795024	      2.71672590	     -5.66057780	     -7.49999987	      1.24370378	      1.41263620	     -2.12673403	     37.00303855	     -6.71950970	     74.57935840	    137.40662383	     99.82926091	     40.89575849	     -2.04746399	     49.17699510	    118.30316651	     95.48611188
      6.75000000	     -2.38044252	     -0.39693060	     -6.40195088	      0.89028946	      0.94183280	     -0.46078051	      0.55682363	     -5.41811077	    -10.77886222	      3.18627600	      0.05561101	      1.92741056	    -11.25700533	     -7.49999987	      2.13003349	    -10.80196712	    -13.00810202	      5.64963282	      0.09860469	      2.88345724	     -5.80544398	     -7.49999987	      1.67655031	      1.43519883	     -1.76278195	     36.44359525	     -6.90180898	     74.87815279	    137.35224828	     98.82446575	     40.19364915	     -1.95066520	     49.34752930	    118.37025306	     94.48905015
      6.76666670	     -2.49004117	     -0.36965022	     -6.49874522	      0.88974691	      0.94212142	     -0.46094248	      0.61795318	     -5.41256654	    -10.58334093	      3.25503427	      0.05681107	      2.11842596	    -11.45889919	     -7.49999987	      2.07635144	    -10.79573140	    -13.15576382	      5.68237659	      0.09917618	      3.16593131	     -5.62000247	     -7.49999987	      2.09709141	      1.41609824	     -1.61735924	     35.86013295	     -6.70622773	     75.15270759	    136.84950947	     98.00303001	     39.35011475	     -2.16036729	     49.03575346	    118.07005243	     93.44581782
      6.78333330	     -2.77517289	     -0.33957078	     -6.52902519	      0.88992539	      0.94540523	     -0.46123787	      0.88814714	     -5.39575798	    -10.43598859	      3.35120602	      0.05848958	      2.28892681	    -11.65757733	     -7.49999987	      2.34140510	    -10.81548986	    -13.26181202	      5.82822081	      0.10172164	      3.41978828	     -5.49252222	     -7.49999987	      2.62636121	      1.41906052	     -1.55725212	     34.98070067	     -6.36853951	     74.82634283	    136.33094990	    100.70375985	     38.26608875	     -2.23157714	     48.37217997	    117.92296989	     95.47056350
      6.80000000	     -2.95712740	     -0.34030001	     -6.57277540	      0.88956901	      0.94433520	     -0.46075245	      1.05283787	     -5.33759569	    -10.31518873	      3.44148004	      0.06006516	      2.48982862	    -11.76623609	     -7.49999987	      2.50068692	    -10.85292431	    -13.39728368	      5.93690021	      0.10361846	      3.68066744	     -5.40343793	     -7.49999987	      3.17356282	      1.34938842	     -1.66038843	     33.71855893	     -6.17732088	     74.01678025	    135.87908027	    100.38904575	     37.33467852	     -2.67783632	     46.89326970	    116.77558999	     95.29331116
      6.81666670	     -3.04276256	     -0.35006111	     -6.48105540	      0.88966305	      0.94396360	     -0.46098513	      1.12827682	     -5.28303481	    -10.39425650	      3.57495331	      0.06239471	      2.73482675	    -11.81046696	     -7.49999987	      2.57158399	    -10.86426394	    -13.45204087	      5.98008723	      0.10437221	      3.72962954	     -5.44468711	     -7.49999987	      3.50894692	      1.30317055	     -1.85915062	     32.96104859	     -6.00125004	     73.12147351	    135.48772244	    101.13649587	     36.71957593	     -2.67097061	     46.07520540	    116.31294411	     95.94960643
      6.83333330	     -3.29025823	     -0.32874015	     -6.41036884	      0.88953071	      0.94384808	     -0.46133383	      1.40765916	     -5.25117913	    -10.51280894	      3.70636746	      0.06468832	      2.95331856	    -11.80631646	     -7.49999987	      2.86516439	    -10.86834886	    -13.43132030	      6.08269470	      0.10616305	      3.78489775	     -5.49743247	     -7.49999987	      3.98418306	      1.27248536	     -2.07324051	     32.04118226	     -5.71713796	     72.60003416	    135.32553185	     98.06285219	     36.34241271	     -2.65439748	     46.00034005	    116.14497823	     93.18109218
      6.85000000	     -3.26535715	     -0.30036931	     -6.39352249	      0.89625179	      0.94759400	     -0.46483824	      1.28470649	     -5.29575716	    -10.40557366	      3.71761076	      0.06488455	      2.87387611	    -12.17886158	     -7.49999987	      2.69027637	    -10.77874247	    -13.70612623	      5.98634609	      0.10448145	      4.01023420	     -5.05169795	     -7.49999987	      4.21590797	      1.34025048	     -2.31202442	     31.24966690	     -5.67514270	     72.49285488	    135.10241183	    100.83383694	     35.65778579	     -2.42386807	     45.82247906	    116.14325367	     95.86437296
      6.86666670	     -3.25638980	     -0.29052245	     -6.36291865	      0.88918846	      0.94360430	     -0.46157441	      1.33486418	     -5.28353119	    -10.39438920	      3.84216750	      0.06705847	      2.87543380	    -12.15697742	     -7.49999987	      2.69892501	    -10.77311953	    -13.68867854	      6.06817436	      0.10590962	      4.00835782	     -5.04454353	     -7.49999987	      4.22665067	      1.35493838	     -2.32178106	     31.24617403	     -5.67557531	     72.49227441	    135.03873909	    100.78749081	     35.65746482	     -2.41100111	     45.82876510	    116.12394243	     95.83080746
      6.88333330	     -3.41755725	     -0.33469875	     -6.18238107	      0.88953360	      0.94676764	     -0.46209307	      1.46073192	     -5.20343937	    -10.55002707	      3.89533768	      0.06798647	      3.08440616	    -12.46959212	     -7.49999987	      2.88420646	    -10.83217943	    -13.67296725	      6.10513078	      0.10655463	      4.15551750	     -4.97423678	     -7.49999987	      4.36178396	      1.47225563	     -2.69207111	     30.85229409	     -5.48234680	     72.65294133	    134.81175855	    100.75037185	     35.61184177	     -2.34345843	     46.53921340	    116.57963751	     96.46386752
      6.90000000	     -3.50587821	     -0.36020064	     -6.17728961	      0.88906302	      0.94702473	     -0.46236253	      1.65797732	     -5.15527671	    -10.55544504	      4.09778207	      0.07151979	      3.16538868	    -12.58481060	     -7.49999987	      2.98918252	    -10.87358586	    -13.67169663	      6.17138693	      0.10771102	      4.32228187	     -4.85948197	     -7.49999987	      4.43626797	      1.52333352	     -2.76092034	     30.51010062	     -5.50680709	     72.91794571	    134.72003688	    100.94216874	     35.48855414	     -2.35810991	     46.65227492	    116.45642264	     96.37861972
